<svg width="106" height="40" viewBox="0 0 106 40" fill="none" xmlns="http://www.w3.org/2000/svg">
<g clip-path="url(#clip0_15_11)">
<mask id="mask0_15_11" style="mask-type:luminance" maskUnits="userSpaceOnUse" x="0" y="0" width="106" height="40">
<path d="M106 0H0V40H106V0Z" fill="white"></path>
</mask>
<g mask="url(#mask0_15_11)">
<path d="M16.6774 4.85714C16.6774 9.14287 11.5894 16.1429 10.2466 18H7.42L0 1.64286H3.392L9.18664 14.5714C10.9534 11.8571 13.4974 7.78574 13.4974 5.14286C13.4974 3.71429 12.7906 2.85714 11.8014 2.85714C10.6 2.85714 9.964 3.85714 9.89336 5H6.784C6.92534 2.07143 9.18664 0 11.8014 0C14.204 0 16.6774 1.71429 16.6774 4.85714ZM29.5386 11.5C29.5386 11.8571 29.5386 12.2857 29.468 12.6429H20.0694C20.352 14.5 21.5534 15.4286 23.3906 15.4286C24.8746 15.4286 26.0054 14.7143 26.5 13.7857L29.044 15.1429C28.2666 16.6429 26.2174 18.2143 23.2494 18.2143C19.292 18.2143 16.8186 15.5 16.8186 11.5C16.8186 7.21429 19.6454 4.71429 23.32 4.71429C26.9946 4.71429 29.5386 7.28571 29.5386 11.5ZM26.2174 10.2857C26.1466 8.64287 25.0866 7.42857 23.1786 7.42857C21.4826 7.42857 20.2106 8.5 20.0694 10.2857H26.2174ZM31.2346 0.357143H34.2734V18H31.2346V0.357143ZM36.7466 0.357143H39.7854V18H36.7466V0.357143ZM45.5094 1.71429C45.5094 2.64286 44.732 3.42857 43.7426 3.42857C42.6826 3.42857 41.9054 2.64286 41.9054 1.71429C41.9054 0.785713 42.6826 0 43.7426 0C44.6614 0 45.5094 0.785713 45.5094 1.71429ZM42.188 5H45.2266V17.9286H42.188V5ZM59.0066 5L54.4134 17.9286H51.092L46.5694 5H49.8906L52.8586 14.2143L55.756 5H59.0066Z" fill="#FFA032"></path>
<path d="M6.07791 24.2142V27.7856H11.3779V30.2856H6.07791V35.5714H3.39258V21.7856H12.0139V24.2856H6.07791V24.2142Z" fill="#FFA032"></path>
<path d="M12.4365 30.0712C12.4365 26.7855 14.9805 24.3569 18.1605 24.3569C21.3405 24.3569 23.8845 26.7855 23.8845 30.0712C23.8845 33.3569 21.3405 35.7855 18.1605 35.7855C14.9805 35.7855 12.4365 33.3569 12.4365 30.0712ZM21.1992 30.0712C21.1992 28.1427 19.9272 26.7855 18.1605 26.7855C16.3938 26.7855 15.1218 28.1427 15.1218 30.0712C15.1218 31.9998 16.3938 33.3569 18.1605 33.3569C19.9272 33.3569 21.1992 31.9998 21.1992 30.0712Z" fill="#FFA032"></path>
<path d="M58.8658 21.7856C58.8658 22.5714 58.1591 23.2142 57.3818 23.2142C56.5338 23.2142 55.8271 22.5714 55.8271 21.7856C55.8271 21 56.4631 20.2856 57.3818 20.2856C58.1591 20.3571 58.8658 21 58.8658 21.7856Z" fill="#FFA032"></path>
<path d="M58.5844 24.5713H55.9697V35.5713H58.5844V24.5713Z" fill="#FFA032"></path>
<path d="M27.7012 27.0716V24.5716H25.1572V35.5716H27.7719V30.643C27.7719 28.5716 29.6092 27.3573 31.7999 27.143V24.4287C29.6799 24.7858 28.4785 25.7144 27.7012 27.0716Z" fill="#FFA032"></path>
<path d="M60.6309 24.5712H63.1749V26.4998C63.6696 25.3569 64.8709 24.3569 66.7082 24.3569C68.8282 24.3569 70.4536 25.8569 70.4536 28.5712V35.5712H67.8389V29.2141C67.8389 27.4283 66.8496 26.8569 65.7896 26.8569C64.5176 26.8569 63.2456 27.8569 63.2456 29.8569V35.5712H60.6309V24.5712Z" fill="#FFA032"></path>
<path d="M94.9056 30.1427C94.9056 26.5712 92.7856 24.3569 89.6761 24.3569C86.5665 24.3569 84.1641 26.4998 84.1641 30.1427C84.1641 33.4998 86.2841 35.8569 89.6761 35.8569C92.2201 35.8569 93.9161 34.5712 94.5521 33.2141L92.3616 32.0712C91.9376 32.9283 91.0185 33.4998 89.6761 33.4998C88.1216 33.4998 87.1321 32.7141 86.8496 31.1427H94.8345C94.9056 30.7855 94.9056 30.4283 94.9056 30.1427ZM86.8496 29.0712C86.9905 27.4998 88.0505 26.6427 89.4641 26.6427C91.0896 26.6427 92.0081 27.7141 92.0785 29.0712H86.8496Z" fill="#FFA032"></path>
<path d="M96.1777 24.5712H98.7217V26.4998C99.2169 25.3569 100.418 24.3569 102.255 24.3569C104.375 24.3569 106.001 25.8569 106.001 28.5712V35.5712H103.386V29.2141C103.386 27.4283 102.397 26.8569 101.337 26.8569C100.065 26.8569 98.7929 27.8569 98.7929 29.8569V35.5712H96.1777V24.5712Z" fill="#FFA032"></path>
<path d="M72.5048 38.7857L73.4235 36.6429C74.0595 37.0715 75.3315 37.6429 76.7448 37.6429C78.9352 37.6429 80.4192 36.2857 80.4192 34.5715V33.5715C79.7832 34.6429 78.5112 35.6429 76.7448 35.6429C73.9182 35.6429 71.7275 33.2857 71.7275 30C71.7275 26.8571 73.9888 24.5 76.6744 24.5C78.5112 24.5 79.7832 25.4286 80.3488 26.5715V24.7857H82.8224V34.2857C82.8224 37.2143 80.7728 39.9286 76.7448 39.9286C74.9075 39.8571 73.2115 39.2143 72.5048 38.7857ZM80.3488 29.9286C80.3488 28.2143 79.1472 26.6429 77.3808 26.6429C75.7552 26.6429 74.4128 28 74.4128 29.9286C74.4128 31.7143 75.6142 33.2143 77.3808 33.2143C79.0768 33.2143 80.3488 31.7857 80.3488 29.9286Z" fill="#FFA032"></path>
<path d="M42.964 30.1427C42.964 26.5712 40.844 24.3569 37.7347 24.3569C34.6253 24.3569 32.2227 26.4998 32.2227 30.1427C32.2227 33.4998 34.3427 35.8569 37.7347 35.8569C40.2787 35.8569 41.9747 34.5712 42.6107 33.2141L40.42 32.0712C39.996 32.9283 39.0773 33.4998 37.7347 33.4998C36.18 33.4998 35.1907 32.7141 34.908 31.1427H42.8933C42.964 30.7855 42.964 30.4283 42.964 30.1427ZM34.908 29.0712C35.0493 27.4998 36.1093 26.6427 37.5227 26.6427C39.148 26.6427 40.0667 27.7141 40.1373 29.0712H34.908Z" fill="#FFA032"></path>
<path d="M44.2363 24.5712H46.7803V26.4998C47.275 25.3569 48.4763 24.3569 50.3136 24.3569C52.4336 24.3569 54.059 25.8569 54.059 28.5712V35.5712H51.4443V29.2141C51.4443 27.4283 50.455 26.8569 49.395 26.8569C48.123 26.8569 46.851 27.8569 46.851 29.8569V35.5712H44.2363V24.5712Z" fill="#FFA032"></path>
</g>
</g>
<defs>
<clipPath id="clip0_15_11">
<rect width="106" height="40" fill="white"></rect>
</clipPath>
</defs>
</svg>
